<?xml version="1.0" encoding="utf-8"?>
<!-- Generator: Adobe Illustrator 26.0.0, SVG Export Plug-In . SVG Version: 6.00 Build 0)  -->
<svg version="1.1" id="Layer_1" xmlns="http://www.w3.org/2000/svg" xmlns:xlink="http://www.w3.org/1999/xlink" x="0px" y="0px"
	 viewBox="0 0 16 17.22" style="enable-background:new 0 0 16 17.22;" xml:space="preserve">
<style type="text/css">
	.st0{fill:#111111;}
</style>
<g>
	<path class="st0" d="M0.99,16.13L0.99,16.13c-0.18-0.18-0.18-0.47,0-0.64L14.36,2.11c0.18-0.18,0.47-0.18,0.64,0v0
		c0.18,0.18,0.18,0.47,0,0.64L1.64,16.13C1.46,16.31,1.17,16.31,0.99,16.13z"/>
	<path class="st0" d="M7.44,8.56L7.44,8.56c0.18-0.18,0.18-0.47,0-0.64L1.92,2.39c-0.18-0.18-0.47-0.18-0.64,0l0,0
		c-0.18,0.18-0.18,0.47,0,0.64L6.8,8.56C6.97,8.74,7.26,8.74,7.44,8.56z"/>
	<path class="st0" d="M15.01,16.13L15.01,16.13c0.18-0.18,0.18-0.47,0-0.64L9.27,9.75c-0.18-0.18-0.47-0.18-0.64,0l0,0
		c-0.18,0.18-0.18,0.47,0,0.64l5.74,5.74C14.54,16.31,14.83,16.31,15.01,16.13z"/>
</g>
</svg>
