<svg width="36" height="36" viewBox="0 0 36 36" fill="none" xmlns="http://www.w3.org/2000/svg">
<path d="M15.735 3.34503L8.25001 6.15003C6.52501 6.79503 5.11501 8.83503 5.11501 10.68V21.825C5.11501 23.595 6.28501 25.92 7.71001 26.985L14.16 31.8C16.275 33.39 19.755 33.39 21.87 31.8L28.32 26.985C29.745 25.92 30.915 23.595 30.915 21.825V10.68C30.915 8.83503 29.505 6.79503 27.78 6.15003L20.295 3.34503C19.02 2.88003 16.98 2.88003 15.735 3.34503V3.34503Z" stroke="white" stroke-width="1.5" stroke-linecap="round" stroke-linejoin="round"/>
<path d="M18 16.38H17.805C16.395 16.335 15.27 15.165 15.27 13.74C15.27 12.285 16.455 11.1 17.91 11.1C19.365 11.1 20.55 12.285 20.55 13.74C20.535 15.18 19.41 16.335 18 16.38ZM15.015 20.58C13.575 21.54 13.575 23.115 15.015 24.075C16.65 25.17 19.335 25.17 20.97 24.075C22.41 23.115 22.41 21.54 20.97 20.58C19.35 19.485 16.665 19.485 15.015 20.58Z" stroke="white" stroke-width="1.5" stroke-linecap="round" stroke-linejoin="round"/>
</svg>
