<svg width="36" height="34" viewBox="0 0 36 34" fill="none" xmlns="http://www.w3.org/2000/svg">
<path fill-rule="evenodd" clip-rule="evenodd" d="M18 0.349976C8.31798 0.349976 0.46051 8.20745 0.46051 17.8895C0.46051 22.6595 2.35564 26.9751 5.44101 30.1481C5.72978 30.4451 6.2046 30.4518 6.50157 30.163C6.79854 29.8742 6.80519 29.3994 6.51642 29.1024C3.6919 26.1977 1.96051 22.2529 1.96051 17.8895C1.96051 9.03587 9.14641 1.84998 18 1.84998C26.8535 1.84998 34.0394 9.03587 34.0394 17.8895V17.8904C34.045 22.0897 32.3974 26.1223 29.4529 29.1162C29.1625 29.4115 29.1664 29.8864 29.4618 30.1768C29.7571 30.4673 30.2319 30.4633 30.5224 30.168C33.743 26.8933 35.5453 22.4825 35.5394 17.8895C35.5394 8.20745 27.682 0.349976 18 0.349976ZM35.5394 17.8895L35.5394 17.8885L34.7894 17.8895H35.5394ZM24.6818 11.2631C22.885 11.2631 21.3793 12.7111 21.3793 14.5315V15.7908C21.3793 16.9028 22.3032 17.8 23.4055 17.8H24.6818C26.4785 17.8 27.9842 16.352 27.9842 14.5315C27.9842 12.7311 26.4818 11.2631 24.6818 11.2631ZM22.8793 14.5315C22.8793 13.5649 23.6878 12.7631 24.6818 12.7631C25.6724 12.7631 26.4842 13.5785 26.4842 14.5315C26.4842 15.4982 25.6757 16.3 24.6818 16.3H23.4055C23.1126 16.3 22.8793 16.0555 22.8793 15.7908V14.5315ZM17.8752 20.9003C16.1541 20.9003 14.5015 21.5748 13.2815 22.7785C12.0611 23.9826 11.3737 25.6179 11.3737 27.3251C11.3737 29.0324 12.0611 30.6676 13.2815 31.8717C14.5015 33.0755 16.1541 33.75 17.8752 33.75C19.5963 33.75 21.2489 33.0755 22.4689 31.8717C23.6893 30.6676 24.3767 29.0324 24.3767 27.3251C24.3767 25.6179 23.6893 23.9826 22.4689 22.7785C21.2489 21.5748 19.5963 20.9003 17.8752 20.9003ZM21.4154 30.804C20.4782 31.7287 19.2049 32.25 17.8752 32.25C16.5455 32.25 15.2722 31.7287 14.335 30.804C13.3982 29.8796 12.8737 28.628 12.8737 27.3251C12.8737 26.0222 13.3982 24.7707 14.335 23.8463C15.2722 22.9216 16.5455 22.4003 17.8752 22.4003C19.2049 22.4003 20.4782 22.9216 21.4154 23.8463C22.3523 24.7707 22.8767 26.0222 22.8767 27.3251C22.8767 28.628 22.3523 29.8796 21.4154 30.804Z" fill="black"/>
</svg>
